<svg enable-background="new 0 0 512 512" height="512" viewBox="0 0 512 512" width="512" xmlns="http://www.w3.org/2000/svg"><path d="m222.012 293.484v25.212l-89.612-38.847v-21.556l89.612-38.838v25.388l-62.439 24.058z"/><path d="m277.425 218.919-24.95 102.713c-.83 3.38-1.554 6.056-2.178 8.018-.624 1.961-1.569 3.495-2.847 4.581-1.277 1.102-3.133 1.649-5.572 1.649-6.05 0-9.083-2.62-9.083-7.835 0-1.368.593-4.783 1.78-10.245l24.854-102.713c1.308-5.461 2.555-9.204 3.742-11.22 1.187-2.019 3.5-3.03 6.95-3.03 2.968 0 5.241.714 6.81 2.14 1.574 1.426 2.364 3.387 2.364 5.879.001 1.841-.628 5.195-1.87 10.063z"/><path d="m379.599 279.849-89.611 39.022v-25.212l62.625-24.583-62.625-24.234v-25.031l89.611 38.658z"/><path d="m437.281 74.719h-362.562c-13.65 0-24.719 11.072-24.719 24.722v313.121c0 13.645 11.069 24.72 24.719 24.72h362.563c13.654 0 24.719-11.075 24.719-24.72v-313.121c-.001-13.655-11.066-24.722-24.72-24.722zm-61.8 16.481c9.082 0 16.48 7.39 16.48 16.481 0 9.088-7.398 16.479-16.48 16.479-9.089 0-16.481-7.391-16.481-16.479 0-9.09 7.392-16.481 16.481-16.481zm-45.319 0c9.083 0 16.476 7.39 16.476 16.481 0 9.088-7.393 16.479-16.476 16.479-9.088 0-16.481-7.391-16.481-16.479-.001-9.09 7.393-16.481 16.481-16.481zm107.119 321.362h-362.562v-271.921h362.563v271.921zm-16.481-288.402c-9.083 0-16.48-7.391-16.48-16.479 0-9.091 7.397-16.481 16.48-16.481s16.481 7.39 16.481 16.481c0 9.088-7.398 16.479-16.481 16.479z"/></svg>